<svg width="32" height="32" viewBox="0 0 32 32" fill="none" xmlns="http://www.w3.org/2000/svg">
<g clip-path="url(#clip0_8_344)">
<mask id="mask0_8_344" style="mask-type:luminance" maskUnits="userSpaceOnUse" x="0" y="0" width="32" height="32">
<path d="M32 0H0V32H32V0Z" fill="white"/>
</mask>
<g mask="url(#mask0_8_344)">
<path d="M31.8222 16C31.8222 24.7384 24.7384 31.8222 16 31.8222C7.26164 31.8222 0.177795 24.7384 0.177795 16C0.177795 7.26158 7.26164 0.177734 16 0.177734C24.7384 0.177734 31.8222 7.26158 31.8222 16Z" fill="#050505" stroke="url(#paint0_linear_8_344)" stroke-width="0.4"/>
<path fill-rule="evenodd" clip-rule="evenodd" d="M13.8707 18.0689V19.8713H7.61746V18.448L10.6248 15.6355C10.9155 15.36 11.1106 15.1246 11.2099 14.9294C11.3063 14.7471 11.3576 14.5443 11.3594 14.3381C11.3651 14.2233 11.3443 14.1086 11.2985 14.0031C11.2526 13.8977 11.183 13.8042 11.095 13.7301C10.9188 13.5845 10.6626 13.5116 10.3263 13.5116C10.0402 13.5088 9.75794 13.5779 9.5055 13.7127C9.25385 13.8492 9.04212 14.049 8.89118 14.2922L7.20007 13.351C7.51806 12.8269 7.97575 12.4017 8.52181 12.1231C9.08807 11.825 9.75776 11.6756 10.5308 11.6752C11.0868 11.6646 11.6393 11.7661 12.1552 11.9736C12.5957 12.1493 12.9778 12.4459 13.2571 12.8292C13.5229 13.2066 13.6616 13.6588 13.653 14.1203C13.6556 14.5475 13.5604 14.9698 13.3747 15.3545C13.1868 15.7408 12.8253 16.1788 12.2901 16.6685L10.7743 18.0689H13.8707ZM18.5504 11.8393V19.8747H16.2784V13.5957H14.7862V11.8393H18.5504ZM23.5209 16.6915H25.4611V15.0171H23.5209V13.1228H21.7531V15.0171H19.8019V16.693H21.7531V18.5872H23.5209V16.6915Z" fill="url(#paint1_linear_8_344)"/>
</g>
</g>
<defs>
<linearGradient id="paint0_linear_8_344" x1="-13.6087" y1="-13.2736" x2="26.8295" y2="26.5408" gradientUnits="userSpaceOnUse">
<stop stop-color="#E9D193"/>
<stop offset="1" stop-color="#D4B962"/>
</linearGradient>
<linearGradient id="paint1_linear_8_344" x1="-0.565814" y1="8.2729" x2="7.26015" y2="25.4314" gradientUnits="userSpaceOnUse">
<stop stop-color="#E9D193"/>
<stop offset="1" stop-color="#D4B962"/>
</linearGradient>
<clipPath id="clip0_8_344">
<rect width="32" height="32" fill="white"/>
</clipPath>
</defs>
</svg>
